<svg width="33" height="33" viewBox="0 0 33 33" fill="none" xmlns="http://www.w3.org/2000/svg">
<rect width="33" height="33" rx="16.5" fill="#F7E192"/>
<path d="M19.5951 28.2329L26.578 23.9653C27.4697 23.4203 28.0136 22.4505 28.0136 21.4055L28.0135 14.4999C28.0135 12.8431 26.6703 11.4999 25.0134 11.5L18.0914 11.5001L18.0913 11.5001L10.0135 11.5C8.35668 11.5 7.01353 12.8432 7.01353 14.5L7.01355 21.3353C7.01356 22.4367 7.61716 23.4496 8.58591 23.9738L16.603 28.3117C17.5432 28.8203 18.683 28.7904 19.5951 28.2329Z" fill="#BD6F36" stroke="#F7E192" stroke-width="2"/>
<path d="M16.3523 6.03577L5.60593 12.3889C5.59788 12.3937 5.58984 12.3984 5.58183 12.4032C5.33981 12.5462 5.11997 12.6762 4.94728 12.7932C4.77374 12.9108 4.5551 13.0748 4.38682 13.3126C3.88351 14.024 3.89875 14.9794 4.42452 15.6744C4.6003 15.9068 4.82406 16.0637 5.00127 16.1757C5.1776 16.2872 5.40148 16.41 5.64795 16.5453C5.6561 16.5498 5.66428 16.5543 5.67249 16.5588L16.4191 22.4576C16.4319 22.4646 16.4452 22.4719 16.4587 22.4794C16.6039 22.5596 16.7857 22.6599 16.9835 22.7211C17.372 22.8414 17.7879 22.8404 18.1758 22.7182C18.3733 22.656 18.5546 22.5548 18.6994 22.4739C18.7129 22.4664 18.7261 22.459 18.739 22.4519L29.3622 16.5532L29.3866 16.5397C29.6298 16.4046 29.8511 16.2818 30.0255 16.1704C30.2012 16.0581 30.4224 15.9013 30.5964 15.6699C31.1175 14.9769 31.1328 14.0271 30.6342 13.3178C30.4677 13.0809 30.2516 12.917 30.0796 12.7992C29.9089 12.6822 29.6917 12.5524 29.4529 12.4096L29.4289 12.3952L18.8055 6.04198C18.7919 6.03386 18.778 6.02549 18.7638 6.01692C18.6115 5.92537 18.4212 5.81094 18.2123 5.74068C17.802 5.6027 17.358 5.60158 16.947 5.73748C16.7377 5.80668 16.5468 5.92014 16.3941 6.01093C16.3799 6.01942 16.3659 6.02772 16.3523 6.03577Z" fill="#BD6F36" stroke="#F7E192" stroke-width="2"/>
<rect x="17.3813" y="12" width="10.7736" height="2.92816" rx="1.46408" transform="rotate(37.1447 17.3813 12)" fill="#F7E192"/>
<path d="M23.5 29C22.6716 29 22 28.3284 22 27.5V19.2707C22 18.3438 22.8323 17.6387 23.7466 17.7911V17.7911C24.4699 17.9116 25 18.5374 25 19.2707V27.5C25 28.3284 24.3284 29 23.5 29V29Z" fill="#F7E192"/>
<path d="M22.5 19L24.5 18.125V27.125L22.5 28.125V19Z" fill="#BD6F36"/>
</svg>
