<svg width="247" height="343" viewBox="0 0 247 343" fill="none" xmlns="http://www.w3.org/2000/svg">
<rect x="31.4055" y="35.6562" width="48.25" height="110.975" rx="18" transform="rotate(16.4391 31.4055 35.6562)" fill="white"/>
<rect x="194.51" y="46.7212" width="48.25" height="110.975" rx="18" transform="rotate(28.2402 194.51 46.7212)" fill="white"/>
<rect x="4" y="102.85" width="193" height="144.75" rx="32" fill="white"/>
<rect x="86.0254" y="102.85" width="28.95" height="53.075" fill="#3DB9FF"/>
<path d="M23.3 173.926C23.3 163.984 31.3589 155.926 41.3 155.926H159.7C169.641 155.926 177.7 163.984 177.7 173.926V241.601C177.7 244.914 175.014 247.601 171.7 247.601H33.3001C27.7772 247.601 23.3 243.123 23.3 237.601V173.926Z" fill="black"/>
<path d="M23.3 159.45C23.3 149.509 31.3589 141.45 41.3 141.45H72.8501C82.7912 141.45 90.85 149.509 90.85 159.45V231.95C90.85 235.263 88.1638 237.95 84.85 237.95H33.3C27.7772 237.95 23.3 233.473 23.3 227.95V159.45Z" fill="black"/>
<path d="M110.151 159.45C110.151 149.509 118.21 141.45 128.151 141.45H159.701C169.642 141.45 177.701 149.509 177.701 159.45V231.95C177.701 235.263 175.015 237.95 171.701 237.95H120.151C114.629 237.95 110.151 233.473 110.151 227.95V159.45Z" fill="black"/>
<circle cx="58.3753" cy="20.9763" r="16.8875" transform="rotate(16.4391 58.3753 20.9763)" fill="#3DB9FF"/>
<circle cx="223.912" cy="37.868" r="16.8875" transform="rotate(28.2402 223.912 37.868)" fill="#3DB9FF"/>
<rect x="49" y="248" width="100" height="65" fill="white"/>
<path d="M49 311.977L80.7556 303L87.1399 325.585C88.3418 329.837 85.8694 334.258 81.6177 335.459L65.2588 340.084C61.0071 341.286 56.5861 338.813 55.3843 334.562L49 311.977Z" fill="white"/>
<path d="M6.96693 290.864C4.22966 287.367 4.86496 282.31 8.38215 279.598L48.9248 248.341L65.7188 270.203L25.5575 301.637C22.0782 304.36 17.0501 303.747 14.3269 300.268L6.96693 290.864Z" fill="white"/>
<path d="M141 248.178L192.886 233.216C197.131 231.992 201.565 234.441 202.789 238.687L206.114 250.217C207.338 254.462 204.889 258.896 200.644 260.12L148.758 275.082L141 248.178Z" fill="white"/>
<path d="M119 309.726L146.172 291L157.521 307.468C160.029 311.106 159.112 316.088 155.474 318.595L141.476 328.242C137.838 330.749 132.857 329.832 130.349 326.194L119 309.726Z" fill="white"/>
<path d="M98.5 291L124 248H73L98.5 291Z" fill="#3DB9FF"/>
<path d="M85 202C85 197.757 83.683 193.687 81.3388 190.686C78.9946 187.686 75.8152 186 72.5 186C69.1848 186 66.0054 187.686 63.6612 190.686C61.317 193.687 60 197.757 60 202L72.5 202H85Z" fill="#3DB9FF"/>
<path d="M167 202C167 197.757 165.683 193.687 163.339 190.686C160.995 187.686 157.815 186 154.5 186C151.185 186 148.005 187.686 145.661 190.686C143.317 193.687 142 197.757 142 202L154.5 202H167Z" fill="#3DB9FF"/>
</svg>
