<svg width="60" height="51" viewBox="0 0 60 51" fill="none" xmlns="http://www.w3.org/2000/svg">
<rect width="60" height="36.931" rx="7" fill="#F7E192"/>
<path d="M31.4498 46.1526C30.7919 47.8611 28.3747 47.8611 27.7169 46.1526L23.7741 35.9126C23.2696 34.6025 24.2366 33.194 25.6405 33.194H33.5262C34.93 33.194 35.897 34.6025 35.3926 35.9126L31.4498 46.1526Z" fill="#F7E192"/>
<path d="M21.8848 20.7701C20.9769 22.7311 18.1894 22.7311 17.2815 20.7701V20.7701C16.5033 19.0892 17.7309 17.1681 19.5832 17.1681V17.1681C21.4355 17.1681 22.663 19.0892 21.8848 20.7701V20.7701Z" fill="#BD6F36"/>
<path d="M21.8848 20.7701C20.9769 22.7311 18.1894 22.7311 17.2815 20.7701V20.7701C16.5033 19.0892 17.7309 17.1681 19.5832 17.1681V17.1681C21.4355 17.1681 22.663 19.0892 21.8848 20.7701V20.7701Z" fill="#BD6F36"/>
<path d="M27.2817 18.9713C28.1896 17.0103 30.9771 17.0103 31.885 18.9713V18.9713C32.6632 20.6522 31.4356 22.5733 29.5833 22.5733V22.5733C27.731 22.5733 26.5035 20.6522 27.2817 18.9713V18.9713Z" fill="#BD6F36"/>
<path d="M27.2817 18.9713C28.1896 17.0103 30.9771 17.0103 31.885 18.9713V18.9713C32.6632 20.6522 31.4356 22.5733 29.5833 22.5733V22.5733C27.731 22.5733 26.5035 20.6522 27.2817 18.9713V18.9713Z" fill="#BD6F36"/>
<path d="M41.885 20.7701C40.9772 22.7311 38.1897 22.7311 37.2818 20.7701V20.7701C36.5036 19.0892 37.7311 17.1681 39.5834 17.1681V17.1681C41.4357 17.1681 42.6633 19.0892 41.885 20.7701V20.7701Z" fill="#BD6F36"/>
<path d="M41.885 20.7701C40.9772 22.7311 38.1897 22.7311 37.2818 20.7701V20.7701C36.5036 19.0892 37.7311 17.1681 39.5834 17.1681V17.1681C41.4357 17.1681 42.6633 19.0892 41.885 20.7701V20.7701Z" fill="#BD6F36"/>
</svg>
